<svg width="400" height="60" viewBox="0 0 400 60" fill="none" xmlns="http://www.w3.org/2000/svg">
  <!-- Visa - Modern Look -->
  <g transform="translate(10, 15)">
    <path d="M51.7 13.1H44.8L38.4 29.8h6.8l6.5-16.7zm28.7 0H74l-6 12.3-.6-3c-.9-3.2-3.8-6.6-7-8.3l6.4 18.2h7.3l9.8-19.2h-3.5zm-80.4 0H0l.2 1c7.8 2 12.9 6.8 15.1 12.7L12.9 1.4C12.5-.4 11.4-1.2 9.8-1.2" fill="#1434CB"/>
    <path d="M103.5 25c0-6.9-12.2-7.3-12.2-10.4 0-1 .9-1.9 3.2-1.9 2.5 0 4.6.6 6 .1.2l.7-5.8c-1.9-.7-4.6-1.2-7.5-1.2-6.6 0-11.4 3.5-11.4 8.6 0 6.5 12.2 6.8 12.2 10.1 0 1.1-1.3 2.1-3.7 2.1-3.3 0-5.7-.8-7.5-1.7l-.7 6c2.2 1.1 5.3 1.8 8.5 1.8 7 0 12.4-3.5 12.4-8.7" fill="#1434CB"/>
  </g>
  
  <!-- Mastercard -->
  <g transform="translate(130, 10)">
    <circle cx="20" cy="20" r="18" fill="#EB001B" opacity="0.9"/>
    <circle cx="35" cy="20" r="18" fill="#F79E1B" opacity="0.9"/>
    <path d="M27.5 10c-3.1 2.7-5 6.6-5 10s1.9 7.3 5 10c3.1-2.7 5-6.6 5-10s-1.9-7.3-5-10" fill="#FF5F00"/>
    <text x="58" y="27" font-family="Arial, sans-serif" font-size="14" font-weight="bold" fill="#444">mastercard</text>
  </g>

  <!-- PayU - Modern Green -->
  <g transform="translate(260, 15)">
    <rect width="90" height="30" rx="4" fill="#6FB62E"/>
    <text x="45" y="22" font-family="Arial, sans-serif" font-size="20" font-weight="900" fill="white" text-anchor="middle">PayU</text>
  </g>
</svg>
